<svg xmlns="http://www.w3.org/2000/svg" viewBox="0 0 53.526 53.5225">
  <path fill="#e6e6e6" fill-rule="evenodd"
        d="m31.122 49.43-1.451 2.45c-1.293 2.19-4.523 2.19-5.817 0l-1.45-2.45c-1.125-1.9-1.688-2.85-2.592-3.37-.904-.53-2.042-.55-4.317-.59-3.36-.06-5.468-.26-7.235-.99-3.278-1.36-5.883-3.97-7.242-7.25-1.018-2.46-1.018-5.57-1.018-11.81v-2.67c0-8.77 0-13.15 1.972-16.36 1.103-1.8 2.617-3.32 4.418-4.42 3.217-1.97 7.598-1.97 16.359-1.97h8.028c8.761 0 13.141 0 16.359 1.97 1.801 1.1 3.315 2.62 4.418 4.42 1.972 3.21 1.972 7.59 1.972 16.36v2.67c0 6.24 0 9.35-1.019 11.81-1.358 3.28-3.963 5.89-7.242 7.25-1.767.73-3.874.93-7.234.99-2.275.04-3.413.06-4.317.59-.904.52-1.467 1.47-2.592 3.37Zm-15.065-23.34c-1.108 0-2.007.9-2.007 2.01 0 1.11.899 2.01 2.007 2.01h14.72c1.109 0 2.007-.9 2.007-2.01 0-1.11-.898-2.01-2.007-2.01h-14.72Zm-2.007-7.36c0-1.11.899-2.01 2.007-2.01h21.411c1.109 0 2.007.9 2.007 2.01 0 1.11-.898 2.01-2.007 2.01h-21.411c-1.108 0-2.007-.9-2.007-2.01"/>
</svg>
