<svg xmlns="http://www.w3.org/2000/svg" viewBox="0 0 23.6182 24.5042">
  <path fill="currentColor" d="M9.592013 23.607237c1.236168 1.195872 3.198006 1.195872 4.434174 0 .706894-.683851 1.689815-1.003221 2.663664-.865476 1.702995.240879 3.290155-.91226 3.58732-2.606341.169933-.968752.77741-1.804874 1.646236-2.265848 1.519339-.806122 2.12558-2.67194 1.370236-4.21715-.43194-.88362-.43194-1.917123 0-2.800743.755342-1.54521.149101-3.411028-1.370236-4.217148-.868824-.460975-1.476303-1.297098-1.646236-2.265848-.297165-1.69408-1.884325-2.847221-3.58732-2.606342-.973849.137745-1.956768-.181625-2.663664-.865477-1.236168-1.195871-3.198006-1.195871-4.434174 0-.706895.683852-1.689815 1.003222-2.663664.865477-1.702995-.240879-3.290156.91226-3.587321 2.606342-.169932.96875-.77741 1.804873-1.646235 2.265848-1.519337.80612-2.125578 2.671938-1.370235 4.217148.431939.88362.431939 1.917124 0 2.800743-.755343 1.54521-.149102 3.411028 1.370235 4.217148.868825.460976 1.476303 1.297098 1.646235 2.26585.297165 1.694081 1.884326 2.84722 3.587321 2.606341.973849-.137745 1.956769.181625 2.663664.865476z"/>
</svg>