<svg xmlns="http://www.w3.org/2000/svg" viewBox="0 0 53 53">
    <path fill="#e6e6e6" fill-rule="evenodd"
          d="M26.5 53c14.64 0 26.5-11.86 26.5-26.5S41.14 0 26.5 0 0 11.86 0 26.5 11.86 53 26.5 53Zm7.95-26.5c1.46 0 2.65-1.78 2.65-3.97 0-2.2-1.19-3.98-2.65-3.98s-2.65 1.78-2.65 3.98c0 2.19 1.19 3.97 2.65 3.97Zm-13.25-3.97c0 2.19-1.19 3.97-2.65 3.97s-2.65-1.78-2.65-3.97c0-2.2 1.19-3.98 2.65-3.98s2.65 1.78 2.65 3.98Zm-4.25 18.4c.66.88 1.9 1.07 2.78.42 1.93-1.43 4.26-2.26 6.77-2.26s4.84.83 6.77 2.26c.88.65 2.12.46 2.78-.42.65-.88.47-2.12-.42-2.78-2.57-1.91-5.72-3.04-9.13-3.04-3.41 0-6.56 1.13-9.13 3.04-.89.66-1.07 1.9-.42 2.78"/>
</svg>
