<svg xmlns="http://www.w3.org/2000/svg" transform="scale(1 -1)" viewBox="0 0 15 15">
  <defs>
    <linearGradient id="a" x1="0" x2="1" y1="0" y2="1">
      <stop offset="0%" stop-color="#f29316"/>
      <stop offset="100%" stop-color="#f23816"/>
    </linearGradient>
  </defs>
  <path fill="url(#a)" d="M5.364873 12.443766C6.31486 14.147954 6.789854 15 7.5 15c.710147 0 1.185141-.852046 2.135127-2.55628l.245773-.440847c.269957-.484276.404935-.726415.615393-.88618.210458-.159766.47257-.219071.996792-.337681l.477261-.107986c1.844761-.417394 2.767141-.626092 2.986588-1.331776.219447-.705685-.40937-1.441005-1.667007-2.911645l-.325366-.380473c-.357381-.417911-.536069-.626866-.616457-.885372-.080389-.258506-.053374-.537297.000658-1.094878l.04919-.50763c.190138-1.962153.285208-2.943231-.289313-3.379368-.574521-.436137-1.438146-.038496-3.165394.756785l-.446858.205751c-.490831.225994-.736247.338991-.996387.338991-.26014 0-.505556-.112997-.996385-.338991L6.056756.93667C4.329506.141389 3.465882-.256253 2.891361.179884c-.57452.436137-.479451 1.417213-.289314 3.379365l.049191.507632c.054031.557582.081047.836373.000659 1.094879-.080388.258506-.259078.467461-.616458.885371l-.325366.380472C.452437 7.898244-.176382 8.633565.043066 9.33925c.219447.705684 1.141827.914382 2.986586 1.331776l.477263.107985c.524223.11861.786335.177916.996792.337682.210458.159765.345437.401904.615393.886179z"/>
</svg>