<svg xmlns="http://www.w3.org/2000/svg" viewBox="0 0 48.312 48.32">
  <path fill="#e6e6e6" d="M27.973 10.17c0 5.62-4.554 10.17-10.172 10.17s-10.172-4.55-10.172-10.17S12.183 0 17.801 0s10.172 4.55 10.172 10.17m7.628 27.98c0 5.61-7.969 10.17-17.8 10.17S.0 43.76.0 38.15c0-5.62 7.97-10.18 17.801-10.18s17.8 4.56 17.8 10.18m12.711 0c0 4.21-5.176 7.62-11.496 7.62 1.862-2.03 3.142-4.59 3.142-7.62 0-3.04-1.283-5.6-3.148-7.63 6.319 0 11.502 3.41 11.502 7.63Zm-7.629-27.98c0 4.22-3.415 7.63-7.628 7.63-.919 0-1.8-.16-2.616-.46 1.203-2.11 1.891-4.56 1.891-7.17 0-2.6-.687-5.05-1.888-7.17.815-.29 1.695-.45 2.613-.45 4.213 0 7.628 3.41 7.628 7.62"/>
</svg>
